<?xml version="1.0" standalone="no"?>
<!DOCTYPE svg PUBLIC "-//W3C//DTD SVG 20010904//EN"
 "http://www.w3.org/TR/2001/REC-SVG-20010904/DTD/svg10.dtd">
<svg version="1.0" xmlns="http://www.w3.org/2000/svg"
 width="360.000000pt" height="345.000000pt" viewBox="0 0 360.000000 345.000000"
 preserveAspectRatio="xMidYMid meet">

<g transform="translate(0.000000,345.000000) scale(0.100000,-0.100000)"
fill="#000000" stroke="none">
<path d="M410 3376 c0 -2 327 -891 356 -966 5 -13 8 -12 17 4 121 195 233 329
367 440 49 41 96 79 106 84 16 9 10 28 -56 213 -40 112 -75 210 -77 217 -4 9
-85 12 -359 12 -195 0 -354 -2 -354 -4z"/>
<path d="M2585 3370 c-9 -14 -46 -123 -43 -126 2 -1 44 -9 93 -19 145 -26 389
-117 451 -166 8 -7 0 -68 -32 -221 -23 -117 -42 -214 -40 -215 2 -2 53 133
114 299 62 167 125 338 141 381 l29 77 -353 0 c-221 0 -356 -4 -360 -10z"/>
<path d="M2343 2697 c-11 -29 -125 -346 -253 -705 -135 -375 -237 -647 -241
-639 -7 11 -69 184 -295 815 -32 89 -61 162 -65 162 -4 0 -30 -44 -57 -98 -95
-185 -141 -361 -149 -578 -5 -121 -3 -151 16 -225 56 -222 185 -356 396 -414
184 -49 506 -19 720 69 l40 17 72 197 c40 108 156 422 258 697 102 275 183
505 181 512 -7 17 -110 85 -193 127 -93 46 -199 82 -288 96 -38 6 -82 13 -96
15 -24 4 -29 -1 -46 -48z"/>
<path d="M740 670 l0 -50 35 0 35 0 0 50 0 50 -35 0 -35 0 0 -50z"/>
<path d="M65 683 c3 -10 58 -157 123 -328 l118 -310 51 -3 50 -3 26 68 c14 37
70 186 125 331 l100 262 -47 0 -46 0 -99 -268 c-54 -147 -102 -270 -105 -274
-4 -4 -40 81 -80 190 -41 108 -87 232 -103 275 l-30 77 -45 0 c-38 0 -43 -3
-38 -17z"/>
<path d="M1150 525 c-19 -9 -47 -28 -62 -42 l-28 -27 0 37 c0 36 -1 37 -40 37
l-40 0 0 -245 0 -245 40 0 40 0 0 148 c0 81 5 163 10 183 21 75 109 119 180
89 53 -22 60 -49 60 -245 l0 -175 40 0 40 0 0 183 c0 170 -2 186 -22 227 -13
24 -35 53 -50 64 -36 26 -122 31 -168 11z"/>
<path d="M1720 525 c-19 -9 -47 -28 -62 -42 l-28 -27 0 37 c0 36 -1 37 -40 37
l-40 0 0 -245 0 -245 40 0 40 0 0 148 c0 81 5 163 10 183 21 75 109 119 180
89 53 -22 60 -49 60 -245 l0 -175 40 0 40 0 0 183 c0 170 -2 186 -22 227 -13
24 -35 53 -50 64 -36 26 -122 31 -168 11z"/>
<path d="M2260 531 c-84 -27 -131 -75 -155 -153 -28 -95 -11 -206 42 -268 58
-70 180 -97 278 -63 47 17 50 20 53 56 l3 38 -33 -18 c-49 -26 -167 -25 -204
3 -44 32 -68 89 -68 158 0 73 24 127 68 159 40 28 153 31 204 4 l32 -18 0 39
c0 33 -4 41 -27 51 -34 16 -159 24 -193 12z"/>
<path d="M2726 525 c-88 -31 -135 -99 -143 -209 -10 -120 31 -217 110 -258 59
-31 165 -31 224 0 97 51 138 193 97 331 -35 119 -164 180 -288 136z m144 -72
c48 -28 73 -86 73 -168 0 -115 -52 -185 -138 -185 -86 0 -137 69 -137 185 0
58 5 82 22 114 38 66 119 90 180 54z"/>
<path d="M3330 525 c-19 -9 -47 -28 -62 -42 l-28 -27 0 37 c0 36 -1 37 -40 37
l-40 0 0 -245 0 -245 40 0 40 0 0 148 c0 81 5 163 10 183 21 75 109 119 180
89 53 -22 60 -49 60 -245 l0 -175 40 0 40 0 0 183 c0 170 -2 186 -22 227 -13
24 -35 53 -50 64 -36 26 -122 31 -168 11z"/>
<path d="M740 285 l0 -245 35 0 35 0 0 245 0 245 -35 0 -35 0 0 -245z"/>
</g>
</svg>
